<svg width="152" height="152" viewBox="0 0 152 152" fill="none" xmlns="http://www.w3.org/2000/svg">
<g clip-path="url(#clip0)">
<g clip-path="url(#clip1)">
<rect width="152.118" height="152.118" rx="76.0591" fill="#33D79A"/>
<g clip-path="url(#clip2)">
<path d="M33.8041 59.1571C33.8041 59.1571 29.5786 118.314 29.5786 139.442H76.0591V54.9316L33.8041 59.1571ZM118.314 59.1571C118.314 59.1571 122.54 118.314 122.54 139.442H76.0591V54.9316L118.314 59.1571Z" fill="#661313"/>
<path d="M76.0591 50.7061V16.902C54.9316 16.902 33.804 29.5785 33.804 54.9316C33.804 80.2846 44.5918 58.7092 46.4806 54.9316C54.9316 38.0295 67.6081 50.7061 76.0591 50.7061ZM76.0591 50.7061V16.902C97.1866 16.902 118.314 29.5785 118.314 54.9316C118.314 80.2846 107.526 58.7092 105.638 54.9316C97.1866 38.0295 84.5101 50.7061 76.0591 50.7061Z" fill="#661313"/>
<path d="M135.216 152.118V143.667C135.216 129.668 123.862 118.314 109.863 118.314H42.255C28.2559 118.314 16.902 129.668 16.902 143.667V152.118H135.216Z" fill="#293F31"/>
<path d="M57.636 118.741C65.0052 124.095 69.6702 127.031 76.0592 127.031C82.4439 127.031 87.1131 124.091 94.4824 118.741V102.638H57.636V118.741V118.741Z" fill="#FFC178"/>
<path d="M40.0494 71.6646C40.0494 48.0482 56.174 28.8982 76.0592 28.8982C95.9444 28.8982 112.069 48.044 112.069 71.6646C112.069 95.2809 95.9444 114.427 76.0592 114.427C56.174 114.427 40.0494 95.2809 40.0494 71.6646Z" fill="#FFC178"/>
<path d="M76.0592 89.7101C64.4221 89.7101 60.8473 86.7269 60.2515 86.1269C59.1698 85.0452 59.1698 83.2916 60.2515 82.2098C61.2995 81.1619 62.977 81.1323 64.063 82.1084C64.2827 82.269 67.1095 84.1662 76.0592 84.1662C85.3553 84.1662 88.0427 82.1169 88.068 82.0957C89.1455 81.0182 90.84 81.069 91.9259 82.1507C93.0077 83.2324 92.9485 85.0409 91.8668 86.1226C91.271 86.7269 87.6962 89.7101 76.0592 89.7101V89.7101Z" fill="#C14F4F"/>
<path d="M59.1571 69.1172C56.8331 69.1172 54.9316 67.2157 54.9316 64.8917V60.6662C54.9316 58.3422 56.8331 56.4407 59.1571 56.4407C61.4811 56.4407 63.3826 58.3422 63.3826 60.6662V64.8917C63.3826 67.2157 61.4811 69.1172 59.1571 69.1172ZM92.9612 69.1172C90.6371 69.1172 88.7357 67.2157 88.7357 64.8917V60.6662C88.7357 58.3422 90.6371 56.4407 92.9612 56.4407C95.2852 56.4407 97.1867 58.3422 97.1867 60.6662V64.8917C97.1867 67.2157 95.2852 69.1172 92.9612 69.1172Z" fill="#661314"/>
<path d="M33.8041 60.3402L41.6973 68.1532C41.6973 68.1532 46.7341 82.5241 41.6973 85.0425C30.4405 90.6667 21.1275 61.7431 21.1275 56.1147C21.1275 51.8892 33.8041 60.3402 33.8041 60.3402ZM115.766 60.3402L107.873 68.1532C107.873 68.1532 102.836 82.5241 107.873 85.0425C119.134 90.6667 130.991 61.7431 130.991 56.1147C130.991 51.8892 115.766 60.3402 115.766 60.3402Z" fill="#FFC178"/>
<path d="M76.0591 16.902C54.9316 16.902 38.0295 29.5785 38.0295 54.9316C38.0295 80.2846 44.5918 58.7092 46.4806 54.9316C54.9316 38.0295 67.6081 42.255 76.0591 42.255C84.5101 42.255 97.1866 38.0295 105.638 54.9316C107.526 58.7092 114.089 80.2846 114.089 54.9316C114.089 29.5785 97.1866 16.902 76.0591 16.902Z" fill="#661313"/>
<path d="M38.0296 54.9317L33.804 152.118H50.7061C50.7061 152.118 39.6057 65.563 46.4806 54.9317C49.43 50.3681 38.0296 54.9317 38.0296 54.9317ZM114.334 54.9317L118.559 152.118H101.412C101.412 152.118 112.758 65.563 105.883 54.9317C102.933 50.3681 114.334 54.9317 114.334 54.9317Z" fill="#661313"/>
</g>
</g>
</g>
<defs>
<clipPath id="clip0">
<rect width="152" height="152" fill="white"/>
</clipPath>
<clipPath id="clip1">
<rect width="152.118" height="152.118" rx="76.0591" fill="white"/>
</clipPath>
<clipPath id="clip2">
<rect width="152.118" height="152.118" fill="white"/>
</clipPath>
</defs>
</svg>
